<svg xmlns="http://www.w3.org/2000/svg" width="347" height="129" viewBox="0 0 347 129"><defs><style>.a{opacity:0.4;}.b{fill:none;}.c{fill:#fff2cc;}</style></defs><g class="a" transform="translate(-1084.698 152.013)"><path class="b" d="M1222.751-47.9a1.155,1.155,0,0,0-1.108,1.194,1.155,1.155,0,0,0,1.108,1.194,1.155,1.155,0,0,0,1.108-1.194A1.155,1.155,0,0,0,1222.751-47.9Z"/><path class="b" d="M1320.08-53.412a1.153,1.153,0,0,0-1.107,1.194,1.154,1.154,0,0,0,1.107,1.194,1.155,1.155,0,0,0,1.108-1.194A1.154,1.154,0,0,0,1320.08-53.412Z"/><path class="b" d="M1315.048-49.13a1.154,1.154,0,0,0-1.108,1.194,1.154,1.154,0,0,0,1.108,1.194,1.155,1.155,0,0,0,1.108-1.194A1.154,1.154,0,0,0,1315.048-49.13Z"/><path class="b" d="M1235.345-133.766a1.934,1.934,0,0,1,1.869,1.589H1251.3l8.572-9.058a.4.4,0,0,1,.29-.125H1292.9a.4.4,0,0,1,.352.21l1.764,3.269h28.65a1.935,1.935,0,0,1,1.87-1.6,1.955,1.955,0,0,1,1.909,1.994,1.955,1.955,0,0,1-1.909,1.994,1.934,1.934,0,0,1-1.867-1.586h-28.892a.4.4,0,0,1-.351-.21l-1.764-3.269h-32.322l-8.571,9.058a.4.4,0,0,1-.291.125h-14.258a1.933,1.933,0,0,1-1.87,1.6,1.955,1.955,0,0,1-1.909-1.993A1.956,1.956,0,0,1,1235.345-133.766Zm-4.522,4.852a1.935,1.935,0,0,1,1.871,1.6h21.7l8.561-9.044a.4.4,0,0,1,.29-.125h26.767a.4.4,0,0,1,.351.21l1.764,3.269h22.885a1.935,1.935,0,0,1,1.872-1.6,1.955,1.955,0,0,1,1.909,1.994,1.955,1.955,0,0,1-1.909,1.993,1.934,1.934,0,0,1-1.869-1.585H1291.89a.4.4,0,0,1-.352-.21l-1.764-3.269h-26.356l-8.561,9.044a.4.4,0,0,1-.29.125h-21.874a1.935,1.935,0,0,1-1.87,1.591,1.955,1.955,0,0,1-1.909-1.994A1.954,1.954,0,0,1,1230.823-128.914Zm-6.235,4.668a1.934,1.934,0,0,1,1.87,1.6h31.026l8.366-8.839a.4.4,0,0,1,.291-.125h20.99a.4.4,0,0,1,.351.21l1.764,3.269H1310.4a1.935,1.935,0,0,1,1.871-1.6,1.956,1.956,0,0,1,1.91,1.994,1.956,1.956,0,0,1-1.91,1.994,1.935,1.935,0,0,1-1.868-1.586h-21.4a.4.4,0,0,1-.352-.21l-1.764-3.269h-20.58l-8.366,8.839a.4.4,0,0,1-.29.125h-31.2a1.936,1.936,0,0,1-1.87,1.592,1.955,1.955,0,0,1-1.908-1.994A1.954,1.954,0,0,1,1224.588-124.246Zm-5.032,4.281a1.935,1.935,0,0,1,1.869,1.591h38.353l8.378-8.852a.4.4,0,0,1,.29-.125h15.8a.4.4,0,0,1,.352.21l1.762,3.269h28.65a1.935,1.935,0,0,1,1.872-1.6,1.955,1.955,0,0,1,1.909,1.993,1.956,1.956,0,0,1-1.909,1.994,1.935,1.935,0,0,1-1.869-1.586h-28.891a.4.4,0,0,1-.353-.21l-1.761-3.269h-15.393l-8.378,8.853a.4.4,0,0,1-.29.125h-38.524a1.934,1.934,0,0,1-1.87,1.6,1.955,1.955,0,0,1-1.91-1.993A1.956,1.956,0,0,1,1219.556-119.965Zm84.735,83.542a1.934,1.934,0,0,1-1.869-1.589h-14.086l-8.573,9.058a.4.4,0,0,1-.29.125h-32.732a.4.4,0,0,1-.351-.21l-1.764-3.269h-28.65a1.935,1.935,0,0,1-1.872,1.6,1.956,1.956,0,0,1-1.909-1.994,1.956,1.956,0,0,1,1.909-1.994,1.935,1.935,0,0,1,1.869,1.586h28.891a.4.4,0,0,1,.352.21l1.763,3.269H1279.3l8.573-9.058a.4.4,0,0,1,.29-.125h14.256a1.935,1.935,0,0,1,1.871-1.6,1.954,1.954,0,0,1,1.909,1.993A1.954,1.954,0,0,1,1304.291-36.423Zm4.522-4.852a1.934,1.934,0,0,1-1.87-1.6h-21.7l-8.56,9.044a.4.4,0,0,1-.29.125h-26.767a.4.4,0,0,1-.352-.21l-1.763-3.269h-22.886a1.935,1.935,0,0,1-1.871,1.6,1.954,1.954,0,0,1-1.908-1.994,1.954,1.954,0,0,1,1.908-1.993,1.933,1.933,0,0,1,1.868,1.585h23.127a.4.4,0,0,1,.352.21l1.763,3.269h26.357l8.56-9.044a.4.4,0,0,1,.29-.125h21.876a1.934,1.934,0,0,1,1.869-1.591,1.956,1.956,0,0,1,1.909,1.994A1.955,1.955,0,0,1,1308.813-41.275Zm6.235-4.667a1.935,1.935,0,0,1-1.87-1.6h-31.027l-8.365,8.839a.4.4,0,0,1-.29.125h-20.991a.4.4,0,0,1-.353-.21l-1.761-3.269h-21.158a1.933,1.933,0,0,1-1.87,1.6,1.955,1.955,0,0,1-1.909-1.994,1.955,1.955,0,0,1,1.909-1.994,1.933,1.933,0,0,1,1.867,1.586h21.4a.4.4,0,0,1,.352.21l1.762,3.269h20.581l8.365-8.839a.4.4,0,0,1,.29-.125h31.2a1.935,1.935,0,0,1,1.869-1.592,1.956,1.956,0,0,1,1.909,1.994A1.956,1.956,0,0,1,1315.048-45.942Zm5.032-4.282a1.935,1.935,0,0,1-1.869-1.591h-38.353l-8.379,8.852a.4.4,0,0,1-.29.125h-15.8a.4.4,0,0,1-.352-.21l-1.764-3.269h-28.65a1.935,1.935,0,0,1-1.871,1.6,1.954,1.954,0,0,1-1.908-1.993,1.955,1.955,0,0,1,1.908-1.994,1.934,1.934,0,0,1,1.868,1.586h28.892a.4.4,0,0,1,.351.209l1.764,3.27h15.391l8.379-8.853a.4.4,0,0,1,.29-.125h38.524a1.935,1.935,0,0,1,1.87-1.6,1.955,1.955,0,0,1,1.909,1.994A1.955,1.955,0,0,1,1320.08-50.224Z"/><path class="b" d="M1354.448-23.961a1.063,1.063,0,0,0-.844.448h1.688A1.063,1.063,0,0,0,1354.448-23.961Z"/><ellipse class="b" cx="1.108" cy="1.194" rx="1.108" ry="1.194" transform="translate(1212.996 -33.894)"/><path class="b" d="M1219.556-116.777a1.154,1.154,0,0,0,1.108-1.193,1.155,1.155,0,0,0-1.108-1.195,1.155,1.155,0,0,0-1.109,1.195A1.154,1.154,0,0,0,1219.556-116.777Z"/><path class="b" d="M1222.751-38.766a1.154,1.154,0,0,0-1.108,1.193,1.154,1.154,0,0,0,1.108,1.194,1.154,1.154,0,0,0,1.108-1.194A1.154,1.154,0,0,0,1222.751-38.766Z"/><path class="b" d="M1308.813-44.462a1.154,1.154,0,0,0-1.108,1.194,1.155,1.155,0,0,0,1.108,1.194,1.154,1.154,0,0,0,1.108-1.194A1.154,1.154,0,0,0,1308.813-44.462Z"/><path class="b" d="M1227.363-43.639a1.155,1.155,0,0,0-1.108,1.194,1.154,1.154,0,0,0,1.108,1.194,1.154,1.154,0,0,0,1.108-1.194A1.154,1.154,0,0,0,1227.363-43.639Z"/><path class="b" d="M1304.291-39.611a1.155,1.155,0,0,0-1.108,1.194,1.155,1.155,0,0,0,1.108,1.195,1.155,1.155,0,0,0,1.108-1.195A1.155,1.155,0,0,0,1304.291-39.611Z"/><path class="b" d="M1414.636-41.478a1.154,1.154,0,0,0-1.108-1.194,1.154,1.154,0,0,0-1.108,1.194,1.155,1.155,0,0,0,1.108,1.194A1.154,1.154,0,0,0,1414.636-41.478Z"/><path class="b" d="M1402.6-132.562a1.153,1.153,0,0,0-1.107,1.194,1.153,1.153,0,0,0,1.107,1.193,1.154,1.154,0,0,0,1.109-1.193A1.154,1.154,0,0,0,1402.6-132.562Z"/><ellipse class="b" cx="1.108" cy="1.194" rx="1.108" ry="1.194" transform="translate(1392.849 -127.69)"/><path class="b" d="M1398.568-122.817a1.153,1.153,0,0,0-1.107,1.194,1.154,1.154,0,0,0,1.107,1.194,1.155,1.155,0,0,0,1.109-1.194A1.154,1.154,0,0,0,1398.568-122.817Z"/><path class="b" d="M1396.766-45.742a1.155,1.155,0,0,0-1.108-1.194,1.155,1.155,0,0,0-1.108,1.194,1.155,1.155,0,0,0,1.108,1.194A1.155,1.155,0,0,0,1396.766-45.742Z"/><ellipse class="b" cx="1.108" cy="1.194" rx="1.108" ry="1.194" transform="translate(1399.161 -51.808)"/><path class="b" d="M1405.989-41.478a1.154,1.154,0,0,0-1.108-1.194,1.154,1.154,0,0,0-1.108,1.194,1.154,1.154,0,0,0,1.108,1.194A1.155,1.155,0,0,0,1405.989-41.478Z"/><path class="b" d="M1410.6-36.606a1.154,1.154,0,0,0-1.107-1.194,1.155,1.155,0,0,0-1.108,1.194,1.155,1.155,0,0,0,1.108,1.194A1.154,1.154,0,0,0,1410.6-36.606Z"/><ellipse class="b" cx="1.108" cy="1.194" rx="1.108" ry="1.194" transform="translate(1412.849 -73.414)"/><rect class="b" width="40.703" height="43.053" transform="translate(1339.374 -109.418)"/><ellipse class="b" cx="1.108" cy="1.194" rx="1.108" ry="1.194" transform="translate(1315.776 -124.675)"/><path class="b" d="M1407.216-137.435a1.155,1.155,0,0,0-1.109,1.194,1.154,1.154,0,0,0,1.109,1.194,1.153,1.153,0,0,0,1.107-1.194A1.154,1.154,0,0,0,1407.216-137.435Z"/><path class="b" d="M1296.61-99.762a1.154,1.154,0,0,0-1.108,1.193,1.154,1.154,0,0,0,1.108,1.194,1.153,1.153,0,0,0,1.108-1.188v-.01A1.154,1.154,0,0,0,1296.61-99.762Z"/><path class="b" d="M1283.271-104.807a1.154,1.154,0,0,0-1.108,1.193,1.154,1.154,0,0,0,1.108,1.194,1.154,1.154,0,0,0,1.108-1.194A1.153,1.153,0,0,0,1283.271-104.807Z"/><path class="b" d="M1339.716-148.631a1.156,1.156,0,0,0,1.108-1.194,1.154,1.154,0,0,0-1.108-1.194,1.154,1.154,0,0,0-1.109,1.194,1.153,1.153,0,0,0,1.107,1.193h0Z"/><path class="b" d="M1373.545-29.324a1.155,1.155,0,0,0,1.108,1.194,1.154,1.154,0,0,0,1.108-1.194,1.154,1.154,0,0,0-1.108-1.194A1.155,1.155,0,0,0,1373.545-29.324Z"/><path class="b" d="M1292.592-94.712a1.154,1.154,0,0,0-1.109,1.194,1.155,1.155,0,0,0,1.109,1.194,1.154,1.154,0,0,0,1.107-1.194A1.153,1.153,0,0,0,1292.592-94.712Z"/><path class="b" d="M1338.656-40.751a1.155,1.155,0,0,0,1.109,1.194,1.155,1.155,0,0,0,1.108-1.194,1.156,1.156,0,0,0-1.108-1.194h0A1.155,1.155,0,0,0,1338.656-40.751Z"/><ellipse class="b" cx="1.108" cy="1.194" rx="1.108" ry="1.194" transform="translate(1403.225 -67.995)"/><path class="b" d="M1343.785-30.582a1.155,1.155,0,0,0,1.108,1.194A1.154,1.154,0,0,0,1346-30.582a1.154,1.154,0,0,0-1.108-1.194A1.154,1.154,0,0,0,1343.785-30.582Z"/><path class="b" d="M1277-81.443a1.154,1.154,0,0,0-1.108,1.194A1.155,1.155,0,0,0,1277-79.055a1.155,1.155,0,0,0,1.108-1.194A1.154,1.154,0,0,0,1277-81.443Z"/><path class="b" d="M1263.773-86.559a1.154,1.154,0,0,0-1.108,1.194,1.155,1.155,0,0,0,1.108,1.194,1.154,1.154,0,0,0,1.108-1.194A1.154,1.154,0,0,0,1263.773-86.559Z"/><path class="b" d="M1297.068-73.364a1.155,1.155,0,0,0-1.108,1.194,1.155,1.155,0,0,0,1.108,1.194,1.154,1.154,0,0,0,1.108-1.194A1.154,1.154,0,0,0,1297.068-73.364Z"/><path class="b" d="M1304.422-68.029a1.155,1.155,0,0,0-1.109,1.195,1.155,1.155,0,0,0,1.109,1.194,1.155,1.155,0,0,0,1.108-1.194A1.155,1.155,0,0,0,1304.422-68.029Z"/><path class="b" d="M1306.73-110.226a1.154,1.154,0,0,0-1.108,1.193,1.154,1.154,0,0,0,1.108,1.194,1.154,1.154,0,0,0,1.108-1.194A1.153,1.153,0,0,0,1306.73-110.226Z"/><ellipse class="b" cx="1.108" cy="1.194" rx="1.108" ry="1.194" transform="translate(1315.776 -133.81)"/><path class="b" d="M1235.345-130.578a1.155,1.155,0,0,0,1.108-1.194,1.155,1.155,0,0,0-1.108-1.194,1.154,1.154,0,0,0-1.108,1.194A1.154,1.154,0,0,0,1235.345-130.578Z"/><path class="b" d="M1409.524-107.805a1.155,1.155,0,0,0,1.109-1.194,1.154,1.154,0,0,0-1.109-1.194,1.153,1.153,0,0,0-1.107,1.194A1.154,1.154,0,0,0,1409.524-107.805Z"/><path class="b" d="M1230.823-125.726a1.156,1.156,0,0,0,1.109-1.195,1.156,1.156,0,0,0-1.109-1.194,1.155,1.155,0,0,0-1.108,1.194A1.155,1.155,0,0,0,1230.823-125.726Z"/><path class="b" d="M1224.588-121.059a1.155,1.155,0,0,0,1.108-1.194,1.155,1.155,0,0,0-1.108-1.194,1.154,1.154,0,0,0-1.108,1.194A1.154,1.154,0,0,0,1224.588-121.059Z"/><ellipse class="b" cx="1.108" cy="1.194" rx="1.108" ry="1.194" transform="translate(1311.165 -128.938)"/><ellipse class="b" cx="1.108" cy="1.194" rx="1.108" ry="1.194" transform="translate(1319.811 -143.555)"/><path class="b" d="M1428.334-77.261a1.154,1.154,0,0,0,1.107,1.19,1.155,1.155,0,0,0,1.109-1.194,1.154,1.154,0,0,0-1.109-1.194,1.153,1.153,0,0,0-1.107,1.188v.01Z"/><path class="b" d="M1325.531-136.295a1.156,1.156,0,0,0,1.109-1.194,1.156,1.156,0,0,0-1.109-1.194,1.154,1.154,0,0,0-1.107,1.194A1.154,1.154,0,0,0,1325.531-136.295Z"/><path class="b" d="M1310.024-28.606a1.155,1.155,0,0,0-1.108-1.194,1.155,1.155,0,0,0-1.108,1.194,1.154,1.154,0,0,0,1.1,1.193h.011A1.155,1.155,0,0,0,1310.024-28.606Z"/><path class="b" d="M1415.149-102.47a1.153,1.153,0,0,0,1.108-1.193,1.155,1.155,0,0,0-1.108-1.195,1.155,1.155,0,0,0-1.108,1.195A1.154,1.154,0,0,0,1415.149-102.47Z"/><path class="b" d="M1421.355-81.121a1.154,1.154,0,0,0,1.108-1.194,1.154,1.154,0,0,0-1.108-1.194,1.155,1.155,0,0,0-1.108,1.194A1.155,1.155,0,0,0,1421.355-81.121Z"/><path class="b" d="M1218.716-29.021a1.154,1.154,0,0,0-1.108,1.194,1.153,1.153,0,0,0,1.108,1.193,1.154,1.154,0,0,0,1.108-1.193A1.154,1.154,0,0,0,1218.716-29.021Z"/><path class="b" d="M1402.6-141.7a1.154,1.154,0,0,0-1.107,1.194,1.154,1.154,0,0,0,1.107,1.194,1.155,1.155,0,0,0,1.109-1.194A1.155,1.155,0,0,0,1402.6-141.7Z"/><path class="c" d="M1376.361-109.425a.4.4,0,0,1-.4-.4v-.394h-3.889v.394a.4.4,0,0,1-.4.4.4.4,0,0,1-.4-.4v-.394h-3.97v.394a.4.4,0,0,1-.4.4.4.4,0,0,1-.4-.4v-.394h-3.991v.394a.4.4,0,0,1-.4.4.4.4,0,0,1-.4-.4v-.394h-3.971v.394a.4.4,0,0,1-.4.4h-.005a.4.4,0,0,1-.4-.4v-.394h-3.978v.394a.4.4,0,0,1-.4.4.4.4,0,0,1-.4-.4v-.394h-3.974v.394a.4.4,0,0,1-.4.4.4.4,0,0,1-.4-.4v-.394h-3.97v.394a.4.4,0,0,1-.4.4.4.4,0,0,1-.4-.4v-.394h-3.633a.4.4,0,0,0-.4.4v3.864h.252a.4.4,0,0,1,.4.4.4.4,0,0,1-.4.4h-.252v4.242h.252a.4.4,0,0,1,.4.4.4.4,0,0,1-.4.4h-.252v4.244h.252a.4.4,0,0,1,.4.4.4.4,0,0,1-.4.4h-.252v4.249h.252a.4.4,0,0,1,.4.4.4.4,0,0,1-.4.4h-.252v4.247h.252a.4.4,0,0,1,.4.4.4.4,0,0,1-.4.4h-.252v4.263h.252a.4.4,0,0,1,.4.4.4.4,0,0,1-.4.4h-.252v4.242h.252a.4.4,0,0,1,.4.4.4.4,0,0,1-.4.4h-.252v4.155h.252a.4.4,0,0,1,.4.4.4.4,0,0,1-.4.4h-.252v3.949a.4.4,0,0,0,.4.4h3.69a.4.4,0,0,1,.393-.36.4.4,0,0,1,.392.36h3.986a.4.4,0,0,1,.392-.36.4.4,0,0,1,.392.36h3.99a.4.4,0,0,1,.392-.36.4.4,0,0,1,.393.36h3.994a.4.4,0,0,1,.393-.36.4.4,0,0,1,.392.36h3.992a.4.4,0,0,1,.392-.36.4.4,0,0,1,.392.36h4.008a.4.4,0,0,1,.392-.36.4.4,0,0,1,.392.36h3.987a.4.4,0,0,1,.393-.36.4.4,0,0,1,.392.36h3.9a.4.4,0,0,1,.392-.36.4.4,0,0,1,.392.36h3.675a.4.4,0,0,0,.4-.4v-3.916a.4.4,0,0,1-.393-.4.4.4,0,0,1,.393-.4v-4.244a.4.4,0,0,1-.393-.4.4.4,0,0,1,.393-.4v-4.248a.4.4,0,0,1-.393-.4.4.4,0,0,1,.393-.4v-4.253a.4.4,0,0,1-.393-.4.4.4,0,0,1,.393-.4v-4.25a.4.4,0,0,1-.393-.4.4.4,0,0,1,.393-.4v-4.266a.4.4,0,0,1-.393-.4.4.4,0,0,1,.393-.4v-4.245a.4.4,0,0,1-.393-.4.4.4,0,0,1,.393-.4v-4.157a.4.4,0,0,1-.393-.4.4.4,0,0,1,.393-.4v-3.9a.4.4,0,0,0-.4-.4h-3.715v.394A.4.4,0,0,1,1376.361-109.425Zm3.716,43.06h-40.7v-43.053h40.7Z"/><path class="c" d="M1337.807-149.825a1.979,1.979,0,0,0,1.507,1.948v-.355a.4.4,0,0,1,.4-.4,1.153,1.153,0,0,1-1.107-1.193,1.154,1.154,0,0,1,1.109-1.194,1.154,1.154,0,0,1,1.108,1.194,1.156,1.156,0,0,1-1.108,1.194.4.4,0,0,1,.4.4v.355a1.978,1.978,0,0,0,1.51-1.948,2.01,2.01,0,0,0-.9-1.688h-2.011A2.011,2.011,0,0,0,1337.807-149.825Z"/><path class="c" d="M1339.716-148.631h0Z"/><path class="c" d="M1343.408-130.784a.4.4,0,0,0-.194-.343l-3.1-1.866v-14.884a1.815,1.815,0,0,1-.4.046,1.842,1.842,0,0,1-.4-.046v15.11a.4.4,0,0,0,.2.343l3.1,1.866v20.34h.8Z"/><path class="c" d="M1343.008-109.425a.4.4,0,0,0,.4-.4v-.394h-.8v.394A.4.4,0,0,0,1343.008-109.425Z"/><path class="c" d="M1340.115-147.877v-.355a.4.4,0,0,0-.4-.4h0a.4.4,0,0,0-.4.4v.355a1.842,1.842,0,0,0,.4.046A1.815,1.815,0,0,0,1340.115-147.877Z"/><path class="c" d="M1356.936-130.784v0Z"/><path class="c" d="M1357.737-110.218V-128.4l0,18.183Z"/><path class="c" d="M1357.732-109.824a.4.4,0,0,1-.4.4h0a.4.4,0,0,0,.4-.4v-.394h-.005Z"/><path class="c" d="M1344.646-135.623l2.74,1.68-.008,23.725h.8l.007-23.949a.4.4,0,0,0-.191-.341l-2.74-1.68-.008-15.325h-.8l.008,15.549A.4.4,0,0,0,1344.646-135.623Z"/><path class="c" d="M1347.778-109.425a.4.4,0,0,0,.4-.4v-.394h-.8v.394A.4.4,0,0,0,1347.778-109.425Z"/><path class="c" d="M1349.421-137.98l2.739,1.68-.007,26.082h.8l.007-26.306a.4.4,0,0,0-.192-.341l-2.74-1.68-.005-12.968h-.8l.006,13.192A.4.4,0,0,0,1349.421-137.98Z"/><path class="c" d="M1352.554-109.425a.4.4,0,0,0,.4-.4v-.394h-.8v.394A.4.4,0,0,0,1352.554-109.425Z"/><path class="c" d="M1356.936-128.261l0,18.043h0Z"/><path class="c" d="M1354.2-141l2.739,1.68,0,8.536a.4.4,0,0,1,.4-.4.4.4,0,0,1,.4.4v2.383l0-11.146a.4.4,0,0,0-.191-.34l-2.74-1.681-.005-9.945h-.8l.005,10.169A.4.4,0,0,0,1354.2-141Z"/><path class="c" d="M1357.332-109.425h0a.4.4,0,0,1-.4-.4v-.394h0v.394A.4.4,0,0,0,1357.332-109.425Z"/><path class="c" d="M1357.732-110.218l.005-18.183v-2.383a.4.4,0,0,0-.4-.4.4.4,0,0,0-.4.4v20.569Z"/><path class="c" d="M1357.732-109.824v-.394h-.8v.394a.4.4,0,0,0,.4.4A.4.4,0,0,0,1357.732-109.824Z"/><path class="c" d="M1358.976-144.045l2.74,1.679-.008,32.148h.8l.008-32.372a.4.4,0,0,0-.192-.34l-2.739-1.68,0-6.9h-.8l0,7.127A.4.4,0,0,0,1358.976-144.045Z"/><path class="c" d="M1362.108-109.425a.4.4,0,0,0,.4-.4v-.394h-.8v.394A.4.4,0,0,0,1362.108-109.425Z"/><path class="c" d="M1376.155-133.563a.4.4,0,0,0-.194.343v23h.8v-22.776l3.1-1.866a.4.4,0,0,0,.2-.343v-16.31h-.8v16.084Z"/><path class="c" d="M1375.961-109.824a.4.4,0,0,0,.4.4.4.4,0,0,0,.4-.4v-.394h-.8Z"/><path class="c" d="M1371.455-136.982a.4.4,0,0,0-.191.341l.007,26.423h.8l-.008-26.2,2.74-1.679a.4.4,0,0,0,.191-.341l.007-13.076h-.8l-.006,12.852Z"/><path class="c" d="M1371.672-109.425a.4.4,0,0,0,.4-.4v-.394h-.8v.394A.4.4,0,0,0,1371.672-109.425Z"/><path class="c" d="M1366.684-139.926a.4.4,0,0,0-.192.342l.008,29.366h.8l-.008-29.142,2.74-1.68a.4.4,0,0,0,.192-.341l0-10.132h-.8l0,9.908Z"/><path class="c" d="M1366.9-109.425a.4.4,0,0,0,.4-.4v-.394h-.8v.394A.4.4,0,0,0,1366.9-109.425Z"/><path class="c" d="M1307.838-109.033a.4.4,0,0,1,.4-.4h.362a1.935,1.935,0,0,0-1.87-1.593,1.955,1.955,0,0,0-1.909,1.993,1.955,1.955,0,0,0,1.909,1.994,1.936,1.936,0,0,0,1.87-1.594h-.362A.4.4,0,0,1,1307.838-109.033Zm-1.108,1.194a1.154,1.154,0,0,1-1.108-1.194,1.154,1.154,0,0,1,1.108-1.193,1.153,1.153,0,0,1,1.108,1.193A1.154,1.154,0,0,1,1306.73-107.839Z"/><path class="c" d="M1284.383-103.612a.4.4,0,0,1,.4-.4h.358a1.934,1.934,0,0,0-1.87-1.6,1.955,1.955,0,0,0-1.909,1.993,1.955,1.955,0,0,0,1.909,1.994,1.934,1.934,0,0,0,1.869-1.592h-.357A.4.4,0,0,1,1284.383-103.612Zm-1.112,1.192a1.154,1.154,0,0,1-1.108-1.194,1.154,1.154,0,0,1,1.108-1.193,1.153,1.153,0,0,1,1.108,1.193A1.154,1.154,0,0,1,1283.271-102.42Z"/><path class="c" d="M1297.718-98.563a1.153,1.153,0,0,1-1.108,1.188,1.154,1.154,0,0,1-1.108-1.194,1.154,1.154,0,0,1,1.108-1.193,1.154,1.154,0,0,1,1.108,1.189.4.4,0,0,1,.4-.394h.364a1.935,1.935,0,0,0-1.871-1.595,1.955,1.955,0,0,0-1.909,1.993,1.956,1.956,0,0,0,1.909,1.994,1.935,1.935,0,0,0,1.87-1.592h-.363A.4.4,0,0,1,1297.718-98.563Z"/><path class="c" d="M1293.7-93.518a.4.4,0,0,1,.4-.4h.359a1.934,1.934,0,0,0-1.869-1.594,1.955,1.955,0,0,0-1.909,1.994,1.954,1.954,0,0,0,1.909,1.993,1.935,1.935,0,0,0,1.869-1.593h-.359A.4.4,0,0,1,1293.7-93.518Zm-1.11,1.194a1.155,1.155,0,0,1-1.109-1.194,1.154,1.154,0,0,1,1.109-1.194,1.153,1.153,0,0,1,1.107,1.194A1.154,1.154,0,0,1,1292.592-92.324Z"/><path class="c" d="M1264.883-85.365a.4.4,0,0,1,.4-.4h.36a1.935,1.935,0,0,0-1.87-1.594,1.955,1.955,0,0,0-1.909,1.994,1.956,1.956,0,0,0,1.909,1.994,1.936,1.936,0,0,0,1.87-1.594h-.36A.4.4,0,0,1,1264.883-85.365Zm-1.11,1.194a1.155,1.155,0,0,1-1.108-1.194,1.154,1.154,0,0,1,1.108-1.194,1.154,1.154,0,0,1,1.108,1.194A1.154,1.154,0,0,1,1263.773-84.171Z"/><path class="c" d="M1278.141-80.319a.4.4,0,0,1,.4-.4h.306a1.927,1.927,0,0,0-1.85-1.525,1.955,1.955,0,0,0-1.909,1.994A1.955,1.955,0,0,0,1277-78.255a1.934,1.934,0,0,0,1.877-1.663h-.334A.4.4,0,0,1,1278.141-80.319ZM1277-79.055a1.155,1.155,0,0,1-1.108-1.194A1.154,1.154,0,0,1,1277-81.443a1.154,1.154,0,0,1,1.108,1.194A1.155,1.155,0,0,1,1277-79.055Z"/><path class="c" d="M1298.183-72.17a.4.4,0,0,1,.4-.4h.355a1.936,1.936,0,0,0-1.87-1.594,1.956,1.956,0,0,0-1.909,1.994,1.955,1.955,0,0,0,1.909,1.993,1.935,1.935,0,0,0,1.87-1.594h-.355A.4.4,0,0,1,1298.183-72.17Zm-1.115,1.194a1.155,1.155,0,0,1-1.108-1.194,1.155,1.155,0,0,1,1.108-1.194,1.154,1.154,0,0,1,1.108,1.194A1.154,1.154,0,0,1,1297.068-70.976Z"/><path class="c" d="M1305.532-66.835a.4.4,0,0,1,.4-.4h.359a1.935,1.935,0,0,0-1.87-1.593,1.955,1.955,0,0,0-1.909,1.994,1.954,1.954,0,0,0,1.909,1.993,1.933,1.933,0,0,0,1.87-1.594h-.359A.4.4,0,0,1,1305.532-66.835Zm-1.11,1.195a1.155,1.155,0,0,1-1.109-1.194,1.155,1.155,0,0,1,1.109-1.195,1.155,1.155,0,0,1,1.108,1.195A1.155,1.155,0,0,1,1304.422-65.64Z"/><path class="c" d="M1324.99-105.954l-1.764-3.269a.4.4,0,0,0-.351-.21H1308.6a2.109,2.109,0,0,1,.039.4,2.1,2.1,0,0,1-.039.4h14.037l1.763,3.268a.4.4,0,0,0,.352.21h13.821v-.8Z"/><path class="c" d="M1339.225-105.554a.4.4,0,0,0-.4-.4h-.252v.8h.252A.4.4,0,0,0,1339.225-105.554Z"/><path class="c" d="M1308.6-109.433h-.362a.4.4,0,0,0-.4.4.4.4,0,0,0,.4.4h.362a2.1,2.1,0,0,0,.039-.4A2.109,2.109,0,0,0,1308.6-109.433Z"/><path class="c" d="M1319.48-100.9l-1.586-2.889a.4.4,0,0,0-.35-.208l-32.4-.009a2.07,2.07,0,0,1,.039.4,2.037,2.037,0,0,1-.04.4l32.168.01,1.585,2.889a.4.4,0,0,0,.351.208l19.329-.008v-.8Z"/><path class="c" d="M1339.225-100.513a.4.4,0,0,0-.4-.4h-.252v.8h.252A.4.4,0,0,0,1339.225-100.513Z"/><path class="c" d="M1285.141-104.011h-.358a.4.4,0,0,0-.4.4.4.4,0,0,0,.4.4h.357a2.037,2.037,0,0,0,.04-.4A2.07,2.07,0,0,0,1285.141-104.011Z"/><path class="c" d="M1297.718-98.563v0Z"/><path class="c" d="M1317.25-95.861l-1.586-2.889a.4.4,0,0,0-.351-.207l-16.832-.01a2.088,2.088,0,0,1,.038.4,2.045,2.045,0,0,1-.039.4l16.6.009,1.586,2.89a.4.4,0,0,0,.351.207l21.559-.008v-.8Z"/><path class="c" d="M1339.225-95.469a.4.4,0,0,0-.4-.4h-.252v.8h.252A.4.4,0,0,0,1339.225-95.469Z"/><path class="c" d="M1298.481-98.967h-.364a.4.4,0,0,0-.4.394v.01a.4.4,0,0,0,.4.4h.363a2.045,2.045,0,0,0,.039-.4A2.088,2.088,0,0,0,1298.481-98.967Z"/><path class="c" d="M1320.141-70.714a.4.4,0,0,0-.352.21l-1.764,3.269h-11.733a2.042,2.042,0,0,1,.039.4,2.015,2.015,0,0,1-.039.4h11.972a.4.4,0,0,0,.351-.21l1.764-3.269h18.194v-.8Z"/><path class="c" d="M1339.225-70.314a.4.4,0,0,0-.4-.4h-.252v.8h.252A.4.4,0,0,0,1339.225-70.314Z"/><path class="c" d="M1306.292-67.235h-.359a.4.4,0,0,0-.4.4.4.4,0,0,0,.4.4h.359a2.015,2.015,0,0,0,.039-.4A2.042,2.042,0,0,0,1306.292-67.235Z"/><path class="c" d="M1313.444-75.677a.4.4,0,0,0-.35.208l-1.586,2.889-12.57.01a2.1,2.1,0,0,1,.038.4,2.091,2.091,0,0,1-.038.4l12.806-.009a.4.4,0,0,0,.351-.208l1.586-2.889,24.892.008v-.8Z"/><path class="c" d="M1339.225-75.268a.4.4,0,0,0-.4-.4h-.252v.8h.252A.4.4,0,0,0,1339.225-75.268Z"/><path class="c" d="M1298.938-72.57h-.355a.4.4,0,0,0-.4.4.4.4,0,0,0,.4.4h.355a2.091,2.091,0,0,0,.038-.4A2.1,2.1,0,0,0,1298.938-72.57Z"/><path class="c" d="M1311.272-80.718a.4.4,0,0,0-.35.207l-1.586,2.889-22.614.01-1.586-2.889a.4.4,0,0,0-.35-.207l-5.939-.01a2.082,2.082,0,0,1,.059.469,2,2,0,0,1-.032.331l5.674.009,1.587,2.89a.4.4,0,0,0,.35.207l23.087-.01a.4.4,0,0,0,.351-.208l1.586-2.888,27.064.008v-.8Z"/><path class="c" d="M1339.225-80.31a.4.4,0,0,0-.4-.4h-.252v.8h.252A.4.4,0,0,0,1339.225-80.31Z"/><path class="c" d="M1278.847-80.718h-.306a.4.4,0,0,0-.4.4.4.4,0,0,0,.4.4h.334a2,2,0,0,0,.032-.331A2.082,2.082,0,0,0,1278.847-80.718Z"/><path class="c" d="M1308.051-85.765l-1.586-2.889a.4.4,0,0,0-.351-.208l-21.358-.009a.4.4,0,0,0-.351.207l-1.586,2.889-17.176.01a2.1,2.1,0,0,1,.039.4,2.109,2.109,0,0,1-.039.4l17.413-.01a.4.4,0,0,0,.35-.208l1.586-2.889,20.886.01,1.586,2.889a.4.4,0,0,0,.35.208l30.759-.008v-.8Z"/><path class="c" d="M1339.225-85.373a.4.4,0,0,0-.4-.4h-.252v.8h.252A.4.4,0,0,0,1339.225-85.373Z"/><path class="c" d="M1265.643-85.765h-.36a.4.4,0,0,0-.4.4.4.4,0,0,0,.4.4h.36a2.109,2.109,0,0,0,.039-.4A2.1,2.1,0,0,0,1265.643-85.765Z"/><path class="c" d="M1314.389-90.811,1312.8-93.7a.4.4,0,0,0-.351-.208l-17.991-.01a2.111,2.111,0,0,1,.039.4,2.111,2.111,0,0,1-.039.4l17.755.01,1.586,2.889a.4.4,0,0,0,.35.207l24.421-.008v-.8Z"/><path class="c" d="M1339.225-90.42a.4.4,0,0,0-.4-.4h-.252v.8h.252A.4.4,0,0,0,1339.225-90.42Z"/><path class="c" d="M1294.461-93.918h-.359a.4.4,0,0,0-.4.4.4.4,0,0,0,.4.4h.359a2.111,2.111,0,0,0,.039-.4A2.111,2.111,0,0,0,1294.461-93.918Z"/><path class="c" d="M1403.225-66.8a.4.4,0,0,1-.4.4h-.361a1.935,1.935,0,0,0,1.87,1.594,1.955,1.955,0,0,0,1.909-1.994,1.955,1.955,0,0,0-1.909-1.994,1.936,1.936,0,0,0-1.871,1.6h.362A.4.4,0,0,1,1403.225-66.8ZM1404.334-68a1.155,1.155,0,0,1,1.108,1.194,1.155,1.155,0,0,1-1.108,1.194,1.156,1.156,0,0,1-1.109-1.194A1.156,1.156,0,0,1,1404.334-68Z"/><path class="c" d="M1412.847-72.221a.4.4,0,0,1-.4.4h-.359a1.936,1.936,0,0,0,1.871,1.6,1.955,1.955,0,0,0,1.909-1.994,1.955,1.955,0,0,0-1.909-1.994,1.936,1.936,0,0,0-1.87,1.592h.358A.4.4,0,0,1,1412.847-72.221Zm1.111-1.193a1.155,1.155,0,0,1,1.108,1.194,1.155,1.155,0,0,1-1.108,1.194,1.155,1.155,0,0,1-1.108-1.194A1.155,1.155,0,0,1,1413.958-73.414Z"/><path class="c" d="M1429.441-79.259a1.935,1.935,0,0,0-1.87,1.593h.363a.4.4,0,0,1,.4.395,1.153,1.153,0,0,1,1.107-1.188,1.154,1.154,0,0,1,1.109,1.194,1.155,1.155,0,0,1-1.109,1.194,1.154,1.154,0,0,1-1.107-1.19.4.4,0,0,1-.4.4h-.363a1.935,1.935,0,0,0,1.87,1.6,1.908,1.908,0,0,0,1.736-1.173v-1.642A1.908,1.908,0,0,0,1429.441-79.259Z"/><path class="c" d="M1420.244-82.315a.4.4,0,0,1-.4.4h-.359a1.936,1.936,0,0,0,1.87,1.594,1.955,1.955,0,0,0,1.909-1.993,1.956,1.956,0,0,0-1.909-1.994,1.935,1.935,0,0,0-1.87,1.593h.359A.4.4,0,0,1,1420.244-82.315Zm1.111-1.194a1.154,1.154,0,0,1,1.108,1.194,1.154,1.154,0,0,1-1.108,1.194,1.155,1.155,0,0,1-1.108-1.194A1.155,1.155,0,0,1,1421.355-83.509Z"/><path class="c" d="M1429.313-99.012h.328a.4.4,0,0,1,.4.4.4.4,0,0,1-.4.4h-.321a1.934,1.934,0,0,0,1.857,1.575v-.8a1.152,1.152,0,0,1-1.1-1.192,1.154,1.154,0,0,1,1.1-1.192v-.8A1.936,1.936,0,0,0,1429.313-99.012Z"/><path class="c" d="M1414.035-103.664a.4.4,0,0,1-.4.4h-.356a1.935,1.935,0,0,0,1.87,1.593,1.955,1.955,0,0,0,1.909-1.993,1.956,1.956,0,0,0-1.909-1.995,1.936,1.936,0,0,0-1.87,1.595h.356A.4.4,0,0,1,1414.035-103.664Zm1.114-1.194a1.155,1.155,0,0,1,1.108,1.195,1.153,1.153,0,0,1-1.108,1.193,1.154,1.154,0,0,1-1.108-1.193A1.155,1.155,0,0,1,1415.149-104.858Z"/><path class="c" d="M1408.414-109a.4.4,0,0,1-.4.4h-.359a1.934,1.934,0,0,0,1.869,1.593,1.955,1.955,0,0,0,1.91-1.993,1.956,1.956,0,0,0-1.91-1.994,1.934,1.934,0,0,0-1.869,1.594h.359A.4.4,0,0,1,1408.414-109Zm1.11-1.194a1.154,1.154,0,0,1,1.109,1.194,1.155,1.155,0,0,1-1.109,1.194,1.154,1.154,0,0,1-1.107-1.194A1.153,1.153,0,0,1,1409.524-110.193Z"/><path class="c" d="M1380.886-69.88h10.953l1.761,3.269a.4.4,0,0,0,.353.21h8.511a2.025,2.025,0,0,1-.039-.4,2.091,2.091,0,0,1,.038-.4h-8.272l-1.761-3.27a.4.4,0,0,0-.353-.209h-11.2v.8Z"/><path class="c" d="M1380.485-70.28a.4.4,0,0,0,.393.4v-.8A.4.4,0,0,0,1380.485-70.28Z"/><path class="c" d="M1402.464-66.4h.361a.4.4,0,0,0,.4-.4.4.4,0,0,0-.4-.4h-.362a2.091,2.091,0,0,0-.038.4A2.025,2.025,0,0,0,1402.464-66.4Z"/><path class="c" d="M1380.886-74.92l19.344-.008,1.586,2.889a.4.4,0,0,0,.351.207l9.92.01a2.088,2.088,0,0,1-.038-.4,2.045,2.045,0,0,1,.039-.4l-9.684-.01-1.587-2.889a.4.4,0,0,0-.35-.207l-19.581.008-.008,0v.8Z"/><path class="c" d="M1380.485-75.32a.4.4,0,0,0,.393.4v-.8A.4.4,0,0,0,1380.485-75.32Z"/><path class="c" d="M1412.087-71.822h.359a.4.4,0,0,0,.4-.4.4.4,0,0,0-.4-.4h-.358a2.045,2.045,0,0,0-.039.4A2.088,2.088,0,0,0,1412.087-71.822Z"/><path class="c" d="M1428.334-77.261v0Z"/><path class="c" d="M1380.886-79.965l22.151-.008,1.586,2.889a.4.4,0,0,0,.351.208l22.6.009a2.08,2.08,0,0,1-.039-.4,2.111,2.111,0,0,1,.039-.4l-22.361-.01-1.586-2.889a.4.4,0,0,0-.351-.208l-22.387.009h-.008v.8Z"/><path class="c" d="M1380.485-80.365a.4.4,0,0,0,.393.4v-.8A.4.4,0,0,0,1380.485-80.365Z"/><path class="c" d="M1427.571-76.867h.363a.4.4,0,0,0,.4-.4v-.01a.4.4,0,0,0-.4-.395h-.363a2.111,2.111,0,0,0-.039.4A2.08,2.08,0,0,0,1427.571-76.867Z"/><path class="c" d="M1380.886-105.12h12.92a.4.4,0,0,0,.351-.21l1.764-3.269h11.734a2.1,2.1,0,0,1-.039-.4,2.1,2.1,0,0,1,.039-.4h-11.972a.4.4,0,0,0-.352.21l-1.764,3.269h-12.681l-.008,0v.8Z"/><path class="c" d="M1380.485-105.52a.4.4,0,0,0,.393.4v-.8A.4.4,0,0,0,1380.485-105.52Z"/><path class="c" d="M1407.655-108.6h.359a.4.4,0,0,0,.4-.4.4.4,0,0,0-.4-.4h-.359a2.1,2.1,0,0,0-.039.4A2.1,2.1,0,0,0,1407.655-108.6Z"/><path class="c" d="M1380.886-100.165l19.04.008a.4.4,0,0,0,.35-.208l1.586-2.889,11.417-.009a2.1,2.1,0,0,1-.039-.4,2.1,2.1,0,0,1,.039-.4l-11.653.01a.4.4,0,0,0-.351.207l-1.586,2.889-18.8-.008h-.008v.8Z"/><path class="c" d="M1380.485-100.565a.4.4,0,0,0,.393.4v-.8A.4.4,0,0,0,1380.485-100.565Z"/><path class="c" d="M1413.279-103.263h.356a.4.4,0,0,0,.4-.4.4.4,0,0,0-.4-.4h-.356a2.1,2.1,0,0,0-.039.4A2.1,2.1,0,0,0,1413.279-103.263Z"/><path class="c" d="M1380.886-95.124l33.316.008a.4.4,0,0,0,.351-.207l1.586-2.889h13.181a2.054,2.054,0,0,1-.044-.418,2.092,2.092,0,0,1,.037-.382H1415.9a.4.4,0,0,0-.35.208l-1.586,2.889-33.08-.009-.008,0v.8Z"/><path class="c" d="M1380.485-95.524a.4.4,0,0,0,.393.4v-.8A.4.4,0,0,0,1380.485-95.524Z"/><path class="c" d="M1429.32-98.212h.321a.4.4,0,0,0,.4-.4.4.4,0,0,0-.4-.4h-.328a2.092,2.092,0,0,0-.037.382A2.054,2.054,0,0,0,1429.32-98.212Z"/><path class="c" d="M1413.833-87.772l-1.586-2.889a.4.4,0,0,0-.351-.207l-31.01.008h-.008v.8l.008,0,30.774-.009,1.586,2.89a.4.4,0,0,0,.351.207l17.323.01a.389.389,0,0,0,.257-.111V-88.66l-.493.9Z"/><path class="c" d="M1380.485-90.46a.4.4,0,0,0,.393.4v-.8A.4.4,0,0,0,1380.485-90.46Z"/><path class="c" d="M1380.886-85.014l24.436-.008,1.586,2.889a.4.4,0,0,0,.351.207l12.226.01a2.1,2.1,0,0,1-.039-.4,2.12,2.12,0,0,1,.039-.4l-11.99-.009-1.586-2.89a.4.4,0,0,0-.35-.207l-24.673.008-.008,0v.8Z"/><path class="c" d="M1380.485-85.414a.4.4,0,0,0,.393.4v-.8A.4.4,0,0,0,1380.485-85.414Z"/><path class="c" d="M1419.485-81.916h.359a.4.4,0,0,0,.4-.4.4.4,0,0,0-.4-.4h-.359a2.12,2.12,0,0,0-.039.4A2.1,2.1,0,0,0,1419.485-81.916Z"/><path class="c" d="M1339.765-41.945a1.156,1.156,0,0,1,1.108,1.194,1.155,1.155,0,0,1-1.108,1.194,1.155,1.155,0,0,1-1.109-1.194,1.155,1.155,0,0,1,1.107-1.194.4.4,0,0,1-.4-.4V-42.7a1.98,1.98,0,0,0-1.508,1.948,1.956,1.956,0,0,0,1.91,1.994,1.956,1.956,0,0,0,1.909-1.994,1.978,1.978,0,0,0-1.51-1.948v.354A.4.4,0,0,1,1339.765-41.945Z"/><path class="c" d="M1344.894-31.78a.4.4,0,0,1-.4-.4v-.351a1.98,1.98,0,0,0-1.51,1.949,1.955,1.955,0,0,0,1.909,1.993,1.955,1.955,0,0,0,1.909-1.993,1.979,1.979,0,0,0-1.507-1.948v.351A.4.4,0,0,1,1344.894-31.78Zm1.107,1.2a1.154,1.154,0,0,1-1.108,1.194,1.155,1.155,0,0,1-1.108-1.194,1.154,1.154,0,0,1,1.108-1.194A1.154,1.154,0,0,1,1346-30.582Z"/><path class="c" d="M1354.849-24.715v.351a.4.4,0,0,1-.4.4.4.4,0,0,1-.4-.4v-.35a1.936,1.936,0,0,0-1.367,1.2h.923a1.063,1.063,0,0,1,.844-.448,1.063,1.063,0,0,1,.844.448h.923A1.94,1.94,0,0,0,1354.849-24.715Z"/><path class="c" d="M1374.654-30.525h0a.4.4,0,0,1-.4-.4v-.348a1.979,1.979,0,0,0-1.508,1.948,1.955,1.955,0,0,0,1.909,1.994,1.955,1.955,0,0,0,1.908-1.994,1.978,1.978,0,0,0-1.508-1.948v.347A.4.4,0,0,1,1374.654-30.525Zm1.107,1.2a1.154,1.154,0,0,1-1.108,1.194,1.155,1.155,0,0,1-1.108-1.194,1.155,1.155,0,0,1,1.108-1.194A1.154,1.154,0,0,1,1375.761-29.324Z"/><path class="c" d="M1380.1-25.033v.351a.4.4,0,0,1-.4.4.4.4,0,0,1-.4-.4v-.351a1.955,1.955,0,0,0-1.462,1.52h.834a1.112,1.112,0,0,1,1.028-.766,1.111,1.111,0,0,1,1.028.766h.834A1.955,1.955,0,0,0,1380.1-25.033Z"/><path class="c" d="M1342.656-65.525v11.6l-3.1,1.866a.4.4,0,0,0-.195.343v9.02a1.841,1.841,0,0,1,.4-.046,1.813,1.813,0,0,1,.4.046v-8.794l3.1-1.866a.4.4,0,0,0,.194-.342V-65.525c0-.014-.007-.026-.008-.04h-.785C1342.663-65.551,1342.656-65.539,1342.656-65.525Z"/><path class="c" d="M1339.765-41.945h0Z"/><path class="c" d="M1343.057-65.925a.4.4,0,0,0-.393.36h.785A.4.4,0,0,0,1343.057-65.925Z"/><path class="c" d="M1339.363-42.7v.354a.4.4,0,0,0,.4.4h0a.4.4,0,0,0,.4-.4V-42.7a1.813,1.813,0,0,0-.4-.046A1.841,1.841,0,0,0,1339.363-42.7Z"/><path class="c" d="M1347.427-65.525l.007,20.464-2.739,1.68a.4.4,0,0,0-.191.34l-.01,10.51a1.876,1.876,0,0,1,.4-.045,1.842,1.842,0,0,1,.4.046l.009-10.286,2.74-1.68a.4.4,0,0,0,.191-.341l-.008-20.688a.29.29,0,0,0-.008-.04h-.784A.273.273,0,0,0,1347.427-65.525Z"/><path class="c" d="M1347.827-65.925a.4.4,0,0,0-.392.36h.784A.4.4,0,0,0,1347.827-65.925Z"/><path class="c" d="M1344.494-32.531v.351a.4.4,0,0,0,.4.4.4.4,0,0,0,.4-.4v-.351a1.842,1.842,0,0,0-.4-.046A1.876,1.876,0,0,0,1344.494-32.531Z"/><path class="c" d="M1352.818-41.53a.4.4,0,0,0,.192-.341L1353-65.525c0-.014-.007-.026-.008-.04h-.785c0,.014-.008.026-.008.04l.008,23.43-2.739,1.68a.4.4,0,0,0-.192.341l-.006,16.561h.8l.006-16.337Z"/><path class="c" d="M1352.6-65.925a.4.4,0,0,0-.392.36h.785A.4.4,0,0,0,1352.6-65.925Z"/><path class="c" d="M1376.01-65.525v25.832a.4.4,0,0,0,.194.343l3.1,1.866v12.451a1.824,1.824,0,0,1,.4-.046,1.817,1.817,0,0,1,.4.046V-37.71a.4.4,0,0,0-.194-.343l-3.1-1.866V-65.525a.29.29,0,0,0-.008-.04h-.784A.29.29,0,0,0,1376.01-65.525Z"/><path class="c" d="M1376.41-65.925a.4.4,0,0,0-.392.36h.784A.4.4,0,0,0,1376.41-65.925Z"/><path class="c" d="M1379.3-25.033v.351a.4.4,0,0,0,.4.4.4.4,0,0,0,.4-.4v-.351a1.817,1.817,0,0,0-.4-.046A1.824,1.824,0,0,0,1379.3-25.033Z"/><path class="c" d="M1371.32-65.525l-.008,26.207a.4.4,0,0,0,.192.341l2.74,1.68.008,6.025a1.84,1.84,0,0,1,.4-.046,1.816,1.816,0,0,1,.4.046l-.009-6.25a.4.4,0,0,0-.192-.34l-2.739-1.68.008-25.983c0-.014-.007-.026-.008-.04h-.785C1371.327-65.551,1371.32-65.539,1371.32-65.525Z"/><path class="c" d="M1371.721-65.925a.4.4,0,0,0-.393.36h.785A.4.4,0,0,0,1371.721-65.925Z"/><path class="c" d="M1374.252-31.272v.348a.4.4,0,0,0,.4.4h0a.4.4,0,0,0,.4-.4v-.347a1.816,1.816,0,0,0-.4-.046A1.84,1.84,0,0,0,1374.252-31.272Z"/><path class="c" d="M1370.081-34.959l-2.739-1.68.008-28.886a.277.277,0,0,0-.009-.04h-.784a.29.29,0,0,0-.008.04l-.008,29.11a.4.4,0,0,0,.191.341l2.74,1.68v10.881h.8v-11.1A.4.4,0,0,0,1370.081-34.959Z"/><path class="c" d="M1366.949-65.925a.4.4,0,0,0-.392.36h.784A.4.4,0,0,0,1366.949-65.925Z"/><path class="c" d="M1362.374-32.419a.4.4,0,0,0,.191-.341l-.007-32.765a.277.277,0,0,0-.009-.04h-.784a.273.273,0,0,0-.008.04l.008,32.541-2.741,1.679a.4.4,0,0,0-.191.341l0,7.451h.8l0-7.227Z"/><path class="c" d="M1362.157-65.925a.4.4,0,0,0-.392.36h.784A.4.4,0,0,0,1362.157-65.925Z"/><path class="c" d="M1356.98-65.525l.008,25.844L1354.249-38a.4.4,0,0,0-.191.341l-.01,12.946a1.824,1.824,0,0,1,.4-.046,1.832,1.832,0,0,1,.4.046l.008-12.722,2.741-1.679a.4.4,0,0,0,.191-.341l-.008-26.068a.273.273,0,0,0-.008-.04h-.785C1356.987-65.551,1356.98-65.539,1356.98-65.525Z"/><path class="c" d="M1357.381-65.925a.4.4,0,0,0-.393.36h.785A.4.4,0,0,0,1357.381-65.925Z"/><path class="c" d="M1354.048-24.715v.35a.4.4,0,0,0,.4.4.4.4,0,0,0,.4-.4v-.351a1.832,1.832,0,0,0-.4-.046A1.824,1.824,0,0,0,1354.048-24.715Z"/><path class="c" d="M1395.268-126.5a.4.4,0,0,1,.4-.4h.156a1.934,1.934,0,0,0-1.868-1.586,1.955,1.955,0,0,0-1.909,1.994,1.955,1.955,0,0,0,1.909,1.994,1.935,1.935,0,0,0,1.871-1.6h-.159A.4.4,0,0,1,1395.268-126.5Zm-1.311,1.2a1.155,1.155,0,0,1-1.108-1.194,1.155,1.155,0,0,1,1.108-1.194,1.155,1.155,0,0,1,1.108,1.194A1.155,1.155,0,0,1,1393.957-125.3Z"/><path class="c" d="M1399.88-121.632a.4.4,0,0,1,.4-.4h.156a1.933,1.933,0,0,0-1.868-1.585,1.956,1.956,0,0,0-1.908,1.994,1.955,1.955,0,0,0,1.908,1.993,1.933,1.933,0,0,0,1.871-1.6h-.159A.4.4,0,0,1,1399.88-121.632Zm-1.312,1.2a1.154,1.154,0,0,1-1.107-1.194,1.153,1.153,0,0,1,1.107-1.194,1.154,1.154,0,0,1,1.109,1.194A1.155,1.155,0,0,1,1398.568-120.429Z"/><path class="c" d="M1422.187-121.822a.4.4,0,0,0-.352-.21h-21.4a2.043,2.043,0,0,1,.041.409,2.008,2.008,0,0,1-.038.391H1421.6l1.761,3.269a.4.4,0,0,0,.353.21h7.466v-.8h-7.228Z"/><path class="c" d="M1400.436-122.032h-.156a.4.4,0,0,0-.4.4.4.4,0,0,0,.4.4h.159a2.008,2.008,0,0,0,.038-.391A2.043,2.043,0,0,0,1400.436-122.032Z"/><path class="c" d="M1425.068-126.694a.4.4,0,0,0-.351-.21h-28.892a2.024,2.024,0,0,1,.041.408,2.105,2.105,0,0,1-.038.392h28.65l1.764,3.269a.4.4,0,0,0,.352.21h4.583v-.8h-4.345Z"/><path class="c" d="M1395.825-126.9h-.156a.4.4,0,0,0-.4.4.4.4,0,0,0,.4.4h.159a2.105,2.105,0,0,0,.038-.392A2.024,2.024,0,0,0,1395.825-126.9Z"/><path class="c" d="M1403.915-131.377a.4.4,0,0,1,.4-.4h.157a1.934,1.934,0,0,0-1.869-1.585,1.955,1.955,0,0,0-1.908,1.994,1.955,1.955,0,0,0,1.908,1.993,1.935,1.935,0,0,0,1.872-1.6h-.16A.4.4,0,0,1,1403.915-131.377Zm-1.312,1.2a1.153,1.153,0,0,1-1.107-1.193,1.153,1.153,0,0,1,1.107-1.194,1.154,1.154,0,0,1,1.109,1.194A1.154,1.154,0,0,1,1402.6-130.175Z"/><path class="c" d="M1427.95-131.567a.4.4,0,0,0-.351-.21h-23.127a2.116,2.116,0,0,1,.041.409,2.094,2.094,0,0,1-.038.391h22.885l1.764,3.269a.4.4,0,0,0,.351.21h1.7v-.8h-1.463Z"/><path class="c" d="M1404.472-131.777h-.157a.4.4,0,0,0-.4.4.4.4,0,0,0,.4.4h.16a2.094,2.094,0,0,0,.038-.391A2.116,2.116,0,0,0,1404.472-131.777Z"/><path class="c" d="M1408.526-136.249a.4.4,0,0,1,.4-.4h.156a1.934,1.934,0,0,0-1.867-1.586,1.955,1.955,0,0,0-1.909,1.994,1.955,1.955,0,0,0,1.909,1.994,1.935,1.935,0,0,0,1.87-1.6h-.159A.4.4,0,0,1,1408.526-136.249Zm-1.31,1.2a1.154,1.154,0,0,1-1.109-1.194,1.155,1.155,0,0,1,1.109-1.194,1.154,1.154,0,0,1,1.107,1.194A1.153,1.153,0,0,1,1407.216-135.047Z"/><path class="c" d="M1430.481-136.649h-21.4a2.106,2.106,0,0,1,.041.408,2.116,2.116,0,0,1-.038.392h21.157l.934,1.732V-135.8l-.343-.636A.4.4,0,0,0,1430.481-136.649Z"/><path class="c" d="M1409.083-136.649h-.156a.4.4,0,0,0-.4.4.4.4,0,0,0,.4.4h.159a2.116,2.116,0,0,0,.038-.392A2.106,2.106,0,0,0,1409.083-136.649Z"/><path class="c" d="M1403.915-140.512a.4.4,0,0,1,.4-.4h.157a1.935,1.935,0,0,0-1.869-1.586,1.956,1.956,0,0,0-1.908,1.994,1.955,1.955,0,0,0,1.908,1.993,1.934,1.934,0,0,0,1.872-1.6h-.16A.4.4,0,0,1,1403.915-140.512Zm-1.312,1.2a1.154,1.154,0,0,1-1.107-1.194,1.154,1.154,0,0,1,1.107-1.194,1.155,1.155,0,0,1,1.109,1.194A1.155,1.155,0,0,1,1402.6-139.31Z"/><path class="c" d="M1404.513-140.5a2.086,2.086,0,0,1-.038.391h26.7v-.8h-26.7A2.106,2.106,0,0,1,1404.513-140.5Z"/><path class="c" d="M1404.472-140.912h-.157a.4.4,0,0,0-.4.4.4.4,0,0,0,.4.4h.16a2.086,2.086,0,0,0,.038-.391A2.106,2.106,0,0,0,1404.472-140.912Z"/><path class="c" d="M1215.416-32.708a.4.4,0,0,1,.4-.4h.157a1.935,1.935,0,0,0-1.869-1.586,1.956,1.956,0,0,0-1.909,1.994,1.956,1.956,0,0,0,1.909,1.994,1.935,1.935,0,0,0,1.872-1.6h-.16A.4.4,0,0,1,1215.416-32.708Zm-1.312,1.2A1.155,1.155,0,0,1,1213-32.7a1.155,1.155,0,0,1,1.108-1.194,1.155,1.155,0,0,1,1.109,1.194A1.155,1.155,0,0,1,1214.1-31.506Z"/><path class="c" d="M1220.027-27.836a.4.4,0,0,1,.4-.4h.156a1.935,1.935,0,0,0-1.868-1.585,1.954,1.954,0,0,0-1.908,1.994,1.954,1.954,0,0,0,1.908,1.993,1.935,1.935,0,0,0,1.871-1.6h-.159A.4.4,0,0,1,1220.027-27.836Zm-1.311,1.2a1.153,1.153,0,0,1-1.108-1.193,1.154,1.154,0,0,1,1.108-1.194,1.154,1.154,0,0,1,1.108,1.194A1.154,1.154,0,0,1,1218.716-26.634Z"/><path class="c" d="M1282.33-24.757H1244.1l-1.762-3.269a.4.4,0,0,0-.353-.21h-21.4a2.117,2.117,0,0,1,.041.409,2.1,2.1,0,0,1-.038.391h21.157l1.762,3.269a.4.4,0,0,0,.352.21h38.257l.293.444h.959l-.7-1.064A.4.4,0,0,0,1282.33-24.757Z"/><path class="c" d="M1220.584-28.236h-.156a.4.4,0,0,0-.4.4.4.4,0,0,0,.4.4h.159a2.1,2.1,0,0,0,.038-.391A2.117,2.117,0,0,0,1220.584-28.236Z"/><path class="c" d="M1302.42-38.812h-14.256a.4.4,0,0,0-.29.125l-8.573,9.058h-32.322l-1.763-3.269a.4.4,0,0,0-.352-.21h-28.891a2.106,2.106,0,0,1,.041.408,2.105,2.105,0,0,1-.038.392h28.65l1.764,3.269a.4.4,0,0,0,.351.21h32.732a.4.4,0,0,0,.29-.125l8.573-9.058h14.086a2.076,2.076,0,0,1-.04-.4A2.057,2.057,0,0,1,1302.42-38.812Z"/><path class="c" d="M1215.973-33.108h-.157a.4.4,0,0,0-.4.4.4.4,0,0,0,.4.4h.16a2.105,2.105,0,0,0,.038-.392A2.106,2.106,0,0,0,1215.973-33.108Z"/><path class="c" d="M1224.062-37.581a.4.4,0,0,1,.4-.4h.156a1.933,1.933,0,0,0-1.868-1.585,1.954,1.954,0,0,0-1.908,1.993,1.954,1.954,0,0,0,1.908,1.994,1.935,1.935,0,0,0,1.871-1.6h-.159A.4.4,0,0,1,1224.062-37.581Zm-1.311,1.2a1.154,1.154,0,0,1-1.108-1.194,1.154,1.154,0,0,1,1.108-1.193,1.154,1.154,0,0,1,1.108,1.193A1.154,1.154,0,0,1,1222.751-36.379Z"/><path class="c" d="M1306.944-43.671h-21.876a.4.4,0,0,0-.29.125l-8.56,9.044h-26.357l-1.763-3.269a.4.4,0,0,0-.352-.21h-23.127a2.04,2.04,0,0,1,.041.408,2.1,2.1,0,0,1-.038.392h22.886l1.763,3.269a.4.4,0,0,0,.352.21h26.767a.4.4,0,0,0,.29-.125l8.56-9.044h21.7a2.078,2.078,0,0,1-.039-.4A2.055,2.055,0,0,1,1306.944-43.671Z"/><path class="c" d="M1224.619-37.981h-.156a.4.4,0,0,0-.4.4.4.4,0,0,0,.4.4h.159a2.1,2.1,0,0,0,.038-.392A2.04,2.04,0,0,0,1224.619-37.981Z"/><path class="c" d="M1228.674-42.453a.4.4,0,0,1,.4-.4h.156a1.933,1.933,0,0,0-1.867-1.586,1.955,1.955,0,0,0-1.909,1.994,1.955,1.955,0,0,0,1.909,1.994,1.933,1.933,0,0,0,1.87-1.6h-.159A.4.4,0,0,1,1228.674-42.453Zm-1.311,1.2a1.154,1.154,0,0,1-1.108-1.194,1.155,1.155,0,0,1,1.108-1.194,1.154,1.154,0,0,1,1.108,1.194A1.154,1.154,0,0,1,1227.363-41.251Z"/><path class="c" d="M1313.179-48.338h-31.2a.4.4,0,0,0-.29.125l-8.365,8.839h-20.581l-1.762-3.269a.4.4,0,0,0-.352-.21h-21.4a2.033,2.033,0,0,1,.041.408,2.026,2.026,0,0,1-.038.392h21.158l1.761,3.269a.4.4,0,0,0,.353.21H1273.5a.4.4,0,0,0,.29-.125l8.365-8.839h31.027a2.088,2.088,0,0,1-.038-.4A2.045,2.045,0,0,1,1313.179-48.338Z"/><path class="c" d="M1229.23-42.853h-.156a.4.4,0,0,0-.4.4.4.4,0,0,0,.4.4h.159a2.026,2.026,0,0,0,.038-.392A2.033,2.033,0,0,0,1229.23-42.853Z"/><path class="c" d="M1224.062-46.717a.4.4,0,0,1,.4-.4h.156a1.934,1.934,0,0,0-1.868-1.586,1.955,1.955,0,0,0-1.908,1.994,1.954,1.954,0,0,0,1.908,1.993,1.935,1.935,0,0,0,1.871-1.6h-.159A.4.4,0,0,1,1224.062-46.717Zm-1.311,1.2a1.155,1.155,0,0,1-1.108-1.194,1.155,1.155,0,0,1,1.108-1.194,1.155,1.155,0,0,1,1.108,1.194A1.155,1.155,0,0,1,1222.751-45.514Z"/><path class="c" d="M1304.291-40.41a1.935,1.935,0,0,0-1.871,1.6h.361a.4.4,0,0,1,.4.4.4.4,0,0,1-.4.4h-.359a1.934,1.934,0,0,0,1.869,1.589,1.954,1.954,0,0,0,1.909-1.994A1.954,1.954,0,0,0,1304.291-40.41Zm0,3.188a1.155,1.155,0,0,1-1.108-1.195,1.155,1.155,0,0,1,1.108-1.194,1.155,1.155,0,0,1,1.108,1.194A1.155,1.155,0,0,1,1304.291-37.222Z"/><path class="c" d="M1303.182-38.412a.4.4,0,0,0-.4-.4h-.361a2.057,2.057,0,0,0-.038.4,2.076,2.076,0,0,0,.04.4h.359A.4.4,0,0,0,1303.182-38.412Z"/><path class="c" d="M1308.813-45.262a1.934,1.934,0,0,0-1.869,1.591h.349a.4.4,0,0,1,.4.4.4.4,0,0,1-.4.4h-.35a1.934,1.934,0,0,0,1.87,1.6,1.955,1.955,0,0,0,1.909-1.993A1.956,1.956,0,0,0,1308.813-45.262Zm0,3.188a1.155,1.155,0,0,1-1.108-1.194,1.154,1.154,0,0,1,1.108-1.194,1.154,1.154,0,0,1,1.108,1.194A1.154,1.154,0,0,1,1308.813-42.074Z"/><path class="c" d="M1307.693-43.271a.4.4,0,0,0-.4-.4h-.349a2.055,2.055,0,0,0-.04.4,2.078,2.078,0,0,0,.039.4h.35A.4.4,0,0,0,1307.693-43.271Z"/><path class="c" d="M1315.048-49.93a1.935,1.935,0,0,0-1.869,1.592h.354a.4.4,0,0,1,.4.4.4.4,0,0,1-.4.4h-.355a1.935,1.935,0,0,0,1.87,1.6,1.956,1.956,0,0,0,1.909-1.994A1.956,1.956,0,0,0,1315.048-49.93Zm0,3.188a1.154,1.154,0,0,1-1.108-1.194,1.154,1.154,0,0,1,1.108-1.194,1.154,1.154,0,0,1,1.108,1.194A1.155,1.155,0,0,1,1315.048-46.742Z"/><path class="c" d="M1313.934-47.938a.4.4,0,0,0-.4-.4h-.354a2.045,2.045,0,0,0-.039.4,2.088,2.088,0,0,0,.038.4h.355A.4.4,0,0,0,1313.934-47.938Z"/><path class="c" d="M1320.08-54.212a1.935,1.935,0,0,0-1.87,1.6h.361a.4.4,0,0,1,.4.4.4.4,0,0,1-.4.4h-.36a1.935,1.935,0,0,0,1.869,1.591,1.955,1.955,0,0,0,1.909-1.994A1.955,1.955,0,0,0,1320.08-54.212Zm0,3.188a1.154,1.154,0,0,1-1.107-1.194,1.153,1.153,0,0,1,1.107-1.194,1.154,1.154,0,0,1,1.108,1.194A1.155,1.155,0,0,1,1320.08-51.024Z"/><path class="c" d="M1318.21-52.615h-38.524a.4.4,0,0,0-.29.125l-8.379,8.853h-15.391l-1.764-3.27a.4.4,0,0,0-.351-.209h-28.892a2.025,2.025,0,0,1,.041.408,2.086,2.086,0,0,1-.038.391h28.65l1.764,3.269a.4.4,0,0,0,.352.21h15.8a.4.4,0,0,0,.29-.125l8.379-8.852h38.353a2.055,2.055,0,0,1-.039-.4A2.08,2.08,0,0,1,1318.21-52.615Z"/><path class="c" d="M1224.619-47.116h-.156a.4.4,0,0,0-.4.4.4.4,0,0,0,.4.4h.159a2.086,2.086,0,0,0,.038-.391A2.025,2.025,0,0,0,1224.619-47.116Z"/><path class="c" d="M1318.972-52.215a.4.4,0,0,0-.4-.4h-.361a2.08,2.08,0,0,0-.038.4,2.055,2.055,0,0,0,.039.4h.36A.4.4,0,0,0,1318.972-52.215Z"/><path class="c" d="M1400.277-49.206a.4.4,0,0,1,.4.4v.137a1.979,1.979,0,0,0,1.5-1.946,1.955,1.955,0,0,0-1.91-1.993,1.955,1.955,0,0,0-1.909,1.993,1.979,1.979,0,0,0,1.517,1.951v-.142A.4.4,0,0,1,1400.277-49.206Zm-1.116-1.409a1.154,1.154,0,0,1,1.108-1.193,1.154,1.154,0,0,1,1.109,1.193,1.154,1.154,0,0,1-1.109,1.194A1.154,1.154,0,0,1,1399.161-50.615Z"/><path class="c" d="M1395.666-44.333a.4.4,0,0,1,.4.4v.136a1.978,1.978,0,0,0,1.5-1.945,1.955,1.955,0,0,0-1.908-1.994,1.955,1.955,0,0,0-1.909,1.994,1.977,1.977,0,0,0,1.517,1.95v-.141A.4.4,0,0,1,1395.666-44.333Zm-1.116-1.409a1.155,1.155,0,0,1,1.108-1.194,1.155,1.155,0,0,1,1.108,1.194,1.155,1.155,0,0,1-1.108,1.194A1.155,1.155,0,0,1,1394.55-45.742Z"/><path class="c" d="M1395.658-43.748a1.8,1.8,0,0,1-.392-.044v20.279h.8V-43.8A1.838,1.838,0,0,1,1395.658-43.748Z"/><path class="c" d="M1396.066-43.8v-.136a.4.4,0,0,0-.4-.4.4.4,0,0,0-.4.4v.141a1.8,1.8,0,0,0,.392.044A1.838,1.838,0,0,0,1396.066-43.8Z"/><path class="c" d="M1400.269-48.621a1.819,1.819,0,0,1-.392-.043v25.151h.8V-48.669A1.838,1.838,0,0,1,1400.269-48.621Z"/><path class="c" d="M1400.678-48.669v-.137a.4.4,0,0,0-.4-.4.4.4,0,0,0-.4.4v.142a1.819,1.819,0,0,0,.392.043A1.838,1.838,0,0,0,1400.678-48.669Z"/><path class="c" d="M1404.889-40.07a.4.4,0,0,1,.4.4v.137a1.978,1.978,0,0,0,1.5-1.945,1.955,1.955,0,0,0-1.909-1.994,1.955,1.955,0,0,0-1.908,1.994,1.978,1.978,0,0,0,1.515,1.95v-.142A.4.4,0,0,1,1404.889-40.07Zm-1.116-1.408a1.154,1.154,0,0,1,1.108-1.194,1.154,1.154,0,0,1,1.108,1.194,1.155,1.155,0,0,1-1.108,1.194A1.154,1.154,0,0,1,1403.773-41.478Z"/><path class="c" d="M1404.881-39.485a1.819,1.819,0,0,1-.393-.043v16.015h.8v-16.02A1.835,1.835,0,0,1,1404.881-39.485Z"/><path class="c" d="M1405.289-39.533v-.137a.4.4,0,0,0-.4-.4.4.4,0,0,0-.4.4v.142a1.819,1.819,0,0,0,.393.043A1.835,1.835,0,0,0,1405.289-39.533Z"/><path class="c" d="M1409.5-35.2a.4.4,0,0,1,.4.4v.137a1.977,1.977,0,0,0,1.5-1.945,1.955,1.955,0,0,0-1.908-1.994,1.955,1.955,0,0,0-1.909,1.994,1.979,1.979,0,0,0,1.516,1.951V-34.8A.4.4,0,0,1,1409.5-35.2Zm-1.116-1.408a1.155,1.155,0,0,1,1.108-1.194,1.154,1.154,0,0,1,1.107,1.194,1.154,1.154,0,0,1-1.107,1.194A1.155,1.155,0,0,1,1408.385-36.606Z"/><path class="c" d="M1409.493-34.612a1.886,1.886,0,0,1-.393-.043v11.142h.8V-34.661A1.779,1.779,0,0,1,1409.493-34.612Z"/><path class="c" d="M1409.9-34.661V-34.8a.4.4,0,0,0-.4-.4.4.4,0,0,0-.4.4v.143a1.886,1.886,0,0,0,.393.043A1.779,1.779,0,0,0,1409.9-34.661Z"/><path class="c" d="M1413.536-40.07a.4.4,0,0,1,.4.4v.137a1.978,1.978,0,0,0,1.5-1.945,1.955,1.955,0,0,0-1.908-1.994,1.955,1.955,0,0,0-1.909,1.994,1.978,1.978,0,0,0,1.517,1.95v-.142A.4.4,0,0,1,1413.536-40.07Zm-1.116-1.408a1.154,1.154,0,0,1,1.108-1.194,1.154,1.154,0,0,1,1.108,1.194,1.154,1.154,0,0,1-1.108,1.194A1.155,1.155,0,0,1,1412.42-41.478Z"/><path class="c" d="M1413.528-39.485a1.811,1.811,0,0,1-.392-.043v16.015h.8v-16.02A1.823,1.823,0,0,1,1413.528-39.485Z"/><path class="c" d="M1413.936-39.533v-.137a.4.4,0,0,0-.4-.4.4.4,0,0,0-.4.4v.142a1.811,1.811,0,0,0,.392.043A1.823,1.823,0,0,0,1413.936-39.533Z"/><path class="c" d="M1324.221-137.481a.4.4,0,0,1-.4.4h-.156a1.934,1.934,0,0,0,1.867,1.586,1.955,1.955,0,0,0,1.909-1.994,1.955,1.955,0,0,0-1.909-1.994,1.935,1.935,0,0,0-1.87,1.6h.159A.4.4,0,0,1,1324.221-137.481Zm1.31-1.2a1.156,1.156,0,0,1,1.109,1.194,1.156,1.156,0,0,1-1.109,1.194,1.154,1.154,0,0,1-1.107-1.194A1.154,1.154,0,0,1,1325.531-138.683Z"/><path class="c" d="M1319.608-142.353a.4.4,0,0,1-.4.4h-.156a1.934,1.934,0,0,0,1.868,1.585,1.954,1.954,0,0,0,1.909-1.994,1.954,1.954,0,0,0-1.909-1.993,1.934,1.934,0,0,0-1.871,1.6h.159A.4.4,0,0,1,1319.608-142.353Zm1.312-1.2a1.154,1.154,0,0,1,1.108,1.193,1.154,1.154,0,0,1-1.108,1.194,1.155,1.155,0,0,1-1.109-1.194A1.155,1.155,0,0,1,1320.92-143.555Z"/><path class="c" d="M1257.307-145.432h38.232l1.764,3.269a.4.4,0,0,0,.351.21h21.4a2.043,2.043,0,0,1-.041-.409,2.025,2.025,0,0,1,.038-.391h-21.157l-1.763-3.269a.4.4,0,0,0-.352-.21h-38.256l-3.49-5.281h-.959l3.9,5.9A.4.4,0,0,0,1257.307-145.432Z"/><path class="c" d="M1319.052-141.953h.156a.4.4,0,0,0,.4-.4.4.4,0,0,0-.4-.4h-.159a2.025,2.025,0,0,0-.038.391A2.043,2.043,0,0,0,1319.052-141.953Z"/><path class="c" d="M1237.215-131.377h14.258a.4.4,0,0,0,.291-.125l8.571-9.058h32.322l1.764,3.269a.4.4,0,0,0,.351.21h28.892a2.033,2.033,0,0,1-.041-.408,2.105,2.105,0,0,1,.038-.392h-28.65l-1.764-3.269a.4.4,0,0,0-.352-.21h-32.732a.4.4,0,0,0-.29.125l-8.572,9.058h-14.087a2.076,2.076,0,0,1,.04.4A2.057,2.057,0,0,1,1237.215-131.377Z"/><path class="c" d="M1323.664-137.081h.156a.4.4,0,0,0,.4-.4.4.4,0,0,0-.4-.4h-.159a2.105,2.105,0,0,0-.038.392A2.033,2.033,0,0,0,1323.664-137.081Z"/><path class="c" d="M1315.573-132.608a.4.4,0,0,1-.4.4h-.157a1.934,1.934,0,0,0,1.869,1.585,1.955,1.955,0,0,0,1.909-1.993,1.955,1.955,0,0,0-1.909-1.994,1.935,1.935,0,0,0-1.872,1.6h.16A.4.4,0,0,1,1315.573-132.608Zm1.312-1.2a1.154,1.154,0,0,1,1.108,1.194,1.154,1.154,0,0,1-1.108,1.193,1.154,1.154,0,0,1-1.109-1.193A1.154,1.154,0,0,1,1316.885-133.81Z"/><path class="c" d="M1232.693-126.518h21.874a.4.4,0,0,0,.29-.125l8.561-9.044h26.356l1.764,3.269a.4.4,0,0,0,.352.21h23.126a2.114,2.114,0,0,1-.041-.408,2.107,2.107,0,0,1,.038-.392h-22.885l-1.764-3.269a.4.4,0,0,0-.351-.21h-26.767a.4.4,0,0,0-.29.125l-8.561,9.044h-21.7a2.077,2.077,0,0,1,.038.4A2.055,2.055,0,0,1,1232.693-126.518Z"/><path class="c" d="M1315.016-132.208h.157a.4.4,0,0,0,.4-.4.4.4,0,0,0-.4-.4h-.16a2.107,2.107,0,0,0-.038.392A2.114,2.114,0,0,0,1315.016-132.208Z"/><path class="c" d="M1310.962-127.736a.4.4,0,0,1-.4.4h-.156a1.935,1.935,0,0,0,1.868,1.586,1.956,1.956,0,0,0,1.91-1.994,1.956,1.956,0,0,0-1.91-1.994,1.935,1.935,0,0,0-1.871,1.6h.159A.4.4,0,0,1,1310.962-127.736Zm1.311-1.2a1.155,1.155,0,0,1,1.109,1.194,1.155,1.155,0,0,1-1.109,1.194,1.155,1.155,0,0,1-1.108-1.194A1.155,1.155,0,0,1,1312.273-128.938Z"/><path class="c" d="M1226.458-121.851h31.2a.4.4,0,0,0,.29-.125l8.366-8.839h20.58l1.764,3.269a.4.4,0,0,0,.352.21h21.4a2.106,2.106,0,0,1-.041-.408,2.116,2.116,0,0,1,.038-.392h-21.156l-1.764-3.269a.4.4,0,0,0-.351-.21h-20.99a.4.4,0,0,0-.291.125l-8.366,8.839h-31.026a2.088,2.088,0,0,1,.039.4A2.122,2.122,0,0,1,1226.458-121.851Z"/><path class="c" d="M1310.405-127.336h.156a.4.4,0,0,0,.4-.4.4.4,0,0,0-.4-.4h-.159a2.116,2.116,0,0,0-.038.392A2.106,2.106,0,0,0,1310.405-127.336Z"/><path class="c" d="M1315.573-123.472a.4.4,0,0,1-.4.4h-.157a1.935,1.935,0,0,0,1.869,1.586,1.956,1.956,0,0,0,1.909-1.994,1.955,1.955,0,0,0-1.909-1.993,1.935,1.935,0,0,0-1.872,1.6h.16A.4.4,0,0,1,1315.573-123.472Zm1.312-1.2a1.155,1.155,0,0,1,1.108,1.194,1.155,1.155,0,0,1-1.108,1.194,1.155,1.155,0,0,1-1.109-1.194A1.155,1.155,0,0,1,1316.885-124.675Z"/><path class="c" d="M1235.345-129.779a1.933,1.933,0,0,0,1.87-1.6h-.361a.4.4,0,0,1-.4-.4.4.4,0,0,1,.4-.4h.36a1.934,1.934,0,0,0-1.869-1.589,1.956,1.956,0,0,0-1.909,1.994A1.955,1.955,0,0,0,1235.345-129.779Zm0-3.187a1.155,1.155,0,0,1,1.108,1.194,1.155,1.155,0,0,1-1.108,1.194,1.154,1.154,0,0,1-1.108-1.194A1.154,1.154,0,0,1,1235.345-132.966Z"/><path class="c" d="M1236.454-131.777a.4.4,0,0,0,.4.4h.361a2.057,2.057,0,0,0,.039-.4,2.076,2.076,0,0,0-.04-.4h-.36A.4.4,0,0,0,1236.454-131.777Z"/><path class="c" d="M1230.823-124.927a1.935,1.935,0,0,0,1.87-1.591h-.349a.4.4,0,0,1-.4-.4.4.4,0,0,1,.4-.4h.35a1.935,1.935,0,0,0-1.871-1.6,1.954,1.954,0,0,0-1.909,1.993A1.955,1.955,0,0,0,1230.823-124.927Zm0-3.188a1.156,1.156,0,0,1,1.109,1.194,1.156,1.156,0,0,1-1.109,1.195,1.155,1.155,0,0,1-1.108-1.195A1.155,1.155,0,0,1,1230.823-128.115Z"/><path class="c" d="M1231.943-126.918a.4.4,0,0,0,.4.4h.349a2.055,2.055,0,0,0,.039-.4,2.077,2.077,0,0,0-.038-.4h-.35A.4.4,0,0,0,1231.943-126.918Z"/><path class="c" d="M1224.588-120.259a1.936,1.936,0,0,0,1.87-1.592h-.356a.4.4,0,0,1-.4-.4.4.4,0,0,1,.4-.4h.356a1.934,1.934,0,0,0-1.87-1.6,1.954,1.954,0,0,0-1.908,1.993A1.955,1.955,0,0,0,1224.588-120.259Zm0-3.188a1.155,1.155,0,0,1,1.108,1.194,1.155,1.155,0,0,1-1.108,1.194,1.154,1.154,0,0,1-1.108-1.194A1.154,1.154,0,0,1,1224.588-123.447Z"/><path class="c" d="M1225.7-122.251a.4.4,0,0,0,.4.4h.356a2.122,2.122,0,0,0,.039-.4,2.088,2.088,0,0,0-.039-.4h-.356A.4.4,0,0,0,1225.7-122.251Z"/><path class="c" d="M1219.556-115.977a1.934,1.934,0,0,0,1.87-1.6h-.361a.4.4,0,0,1-.4-.4.4.4,0,0,1,.4-.4h.36a1.935,1.935,0,0,0-1.869-1.591,1.956,1.956,0,0,0-1.91,1.995A1.955,1.955,0,0,0,1219.556-115.977Zm0-3.188a1.155,1.155,0,0,1,1.108,1.195,1.154,1.154,0,0,1-1.108,1.193,1.154,1.154,0,0,1-1.109-1.193A1.155,1.155,0,0,1,1219.556-119.165Z"/><path class="c" d="M1221.426-117.574h38.524a.4.4,0,0,0,.29-.125l8.378-8.853h15.393l1.761,3.269a.4.4,0,0,0,.353.21h28.891a2.1,2.1,0,0,1-.041-.408,2.1,2.1,0,0,1,.038-.391h-28.65l-1.762-3.269a.4.4,0,0,0-.352-.21h-15.8a.4.4,0,0,0-.29.125l-8.378,8.852h-38.353a2.058,2.058,0,0,1,.04.4A2.067,2.067,0,0,1,1221.426-117.574Z"/><path class="c" d="M1315.016-123.073h.157a.4.4,0,0,0,.4-.4.4.4,0,0,0-.4-.4h-.16a2.1,2.1,0,0,0-.038.391A2.1,2.1,0,0,0,1315.016-123.073Z"/><path class="c" d="M1220.665-117.974a.4.4,0,0,0,.4.4h.361a2.067,2.067,0,0,0,.039-.4,2.058,2.058,0,0,0-.04-.4h-.36A.4.4,0,0,0,1220.665-117.974Z"/><path class="c" d="M1308.91-27.413a1.154,1.154,0,0,1-1.1-1.193,1.155,1.155,0,0,1,1.108-1.194,1.155,1.155,0,0,1,1.108,1.194,1.155,1.155,0,0,1-1.1,1.193.4.4,0,0,1,.394.4v.356a1.977,1.977,0,0,0,1.51-1.948,1.954,1.954,0,0,0-1.909-1.993,1.954,1.954,0,0,0-1.909,1.993,1.979,1.979,0,0,0,1.507,1.948v-.356A.4.4,0,0,1,1308.91-27.413Z"/><path class="c" d="M1308.91-27.413h0Z"/><path class="c" d="M1308.916-26.612a1.841,1.841,0,0,1-.4-.046v3.145h.8v-3.145A1.813,1.813,0,0,1,1308.916-26.612Z"/><path class="c" d="M1309.315-26.658v-.356a.4.4,0,0,0-.394-.4h-.011a.4.4,0,0,0-.4.4v.356a1.841,1.841,0,0,0,.4.046A1.813,1.813,0,0,0,1309.315-26.658Z"/><rect class="b" width="347" height="129" rx="9.5" transform="translate(1084.698 -152.013)"/></g></svg>